<svg width="400pt" height="563pt" viewBox="0 0 400 563" xmlns="http://www.w3.org/2000/svg"><path fill="#f47a22" d="M100.57 35.61C130.63 17.38 165.8 7.52 200.99 7.99c40.43.1 80.57 13.89 112.88 38.12 10.32 7.54 19.54 16.44 28.21 25.8 24.61 27.41 40.95 62.39 45.02 99.1 1.07 10.44 1.78 21.04.13 31.46-2.45 16.56-7.61 32.58-13.3 48.28-1.7 4.33-3.09 8.82-5.35 12.9-43.54 75.15-87.03 150.32-130.6 225.44-12.57 21.84-25.39 43.55-37.84 65.45-.34.07-1.03.2-1.37.27-5.42-10.27-11.59-20.14-17.3-30.25C131.55 438.4 81.71 352.2 31.85 266c-4.06-6.51-6.1-13.98-8.8-21.1-5.57-16.21-10.73-32.79-12.2-49.94-1.15-32 7.4-64.11 23.34-91.81 15.91-27.67 39.06-51.06 66.38-67.54z"/><path fill="#fffefe" d="M117.75 67.82c18.88-9.18 39.58-14.19 60.43-16.08 33.28-2.82 67.78.04 98.71 13.34 7.91 3.41 16.17 7.47 20.99 14.95 4.05 6.55 5.3 14.35 6.25 21.86 2.08 19.07 4.07 38.15 6.09 57.23.53 6.28 1.64 12.53 1.65 18.85-.01 33.67 0 67.35 0 101.02-6.51.02-13.02.01-19.53.01-.3 6.33.54 12.67.05 18.99-.92 8.07-9.36 13.91-17.25 12.61-6.75-.78-12.64-6.71-12.79-13.6-.18-5.96-.04-11.93-.05-17.89-41.32-.25-82.65-.05-123.98-.1 0 5.67.01 11.34.02 17.01.22 6.6-4.81 12.69-11.16 14.21-8.16 2.4-17.98-3.36-18.86-12.04-.17-6.4-.08-12.8 0-19.19-6.56-.03-13.13.07-19.69-.07.07-34.32-.04-68.64.05-102.95 2.47-25.04 5.22-50.05 7.9-75.07 1.11-8.37 2.74-17.28 8.38-23.92 3.45-4.04 8.08-6.82 12.79-9.17z"/><path fill="#f47a22" d="M152.37 70.48c1.21-.2 2.44-.29 3.67-.26 30.34.07 60.67-.01 91.01.04 3.58-.1 7.08 3.03 6.74 6.74.3 4.1-3.95 6.99-7.73 6.75-30.34 0-60.69.03-91.04-.02-3.77.18-7.91-2.71-7.7-6.77-.24-3.04 2.26-5.68 5.05-6.48zM121.35 99.41c1.52-.54 3.13-.65 4.73-.67 49.64.03 99.27.01 148.91.01 5.19-.28 10.61 3.35 11.35 8.68 2.3 17.48 4.43 35 5.57 52.59.33 3.94 1.43 8.14-.34 11.9-1.67 3.6-5.73 5.53-9.59 5.33-54.32 0-108.65 0-162.97-.01-4.83.17-9.76-3.27-10.46-8.2-.43-4.71.76-9.36.82-14.06 1.33-15.99 3.11-31.94 5.15-47.86.31-3.72 3.42-6.62 6.83-7.71zM119.37 216.44c8.38-2.51 18.19 3.61 18.92 12.48 1.17 8.21-6 15.99-14.15 16.1-7.56.57-15.16-5.25-15.84-12.93-.98-7.1 4.23-14 11.07-15.65zM273.35 216.43c8.08-2.31 17.68 3.07 18.9 11.63 1.66 8.13-5.03 16.29-13.16 16.89-8.18 1.27-16.79-5.51-16.66-13.95-.54-6.67 4.49-13.04 10.92-14.57z"/></svg>